<svg xmlns="http://www.w3.org/2000/svg" viewBox="0 0 80.68 80.68"><defs><style>.cls-1{fill:#fcd110;}.cls-2{fill:#4973b9;}</style></defs><g id="Calque_2" data-name="Calque 2"><g id="Calque_1-2" data-name="Calque 1"><circle class="cls-1" cx="40.34" cy="40.34" r="40.34"/><path class="cls-2" d="M60.26,58.79H51.15L54,35a.83.83,0,0,0-.73-.94H49.73l.84-11.92a1.69,1.69,0,0,1,1.26,1.78l-.49,6.63a.85.85,0,0,0,.77.9h.06a.84.84,0,0,0,.84-.79l.49-6.62a3.38,3.38,0,0,0-2.81-3.58l.14-1.33a2.55,2.55,0,0,0-.54-1.78,2.27,2.27,0,0,0-.84-.66l.06-.85a.85.85,0,0,0-1.69-.12l-.06.84a2.53,2.53,0,0,0-1.68,2.23L45,34.08h-2l-.47-5.9a2.49,2.49,0,0,0-.9-1.69l-.23-2.88v-.2l-2.09-6.23a.83.83,0,0,0-1.61.13l-1,6.49V24l.23,2.87-.05.05a2.36,2.36,0,0,0-.57,1.76l.43,5.39h-1l-1.29-4.59a2.9,2.9,0,0,0-1.6-1.9l-.67-2.45a4,4,0,0,0,.37-.54,3.85,3.85,0,0,0,.36-2.95l-1.61-5.87a.85.85,0,0,0-1.06-.55h0a6.94,6.94,0,0,0-4.84,8.53h0a3.85,3.85,0,0,0,1.83,2.35,5.3,5.3,0,0,0,.59.27l.67,2.44A3,3,0,0,0,28,31.24l.79,2.84H27.41a.85.85,0,0,0-.85.84.41.41,0,0,0,0,.11l2.88,23.76H20.33a.84.84,0,0,0,0,1.68H60.26a.84.84,0,1,0,0-1.68ZM48.5,18.13h0a.63.63,0,0,1,.44.26.82.82,0,0,1,.18.6L49,20.32l-1.38-.1.09-1.33A.78.78,0,0,1,48.5,18.13Zm-1,3.78,1.37.1L48,34.08H46.65Zm-9.1,4.22-.11-1.38,1.38-.11L39.82,26Zm.29-5.06L39.35,23l-.93.07Zm-.84,7.51a.73.73,0,0,1,.67-.79h0L40,27.67a.75.75,0,0,1,.8.68l.46,5.76H38.32Zm-7.81-.91-.16.07L29.6,26.6a3.35,3.35,0,0,0,1.08-.31L31,27.42h-.18ZM27,23.33a5.25,5.25,0,0,1,2.87-6.17l1.37,5a2.2,2.2,0,0,1-4.09,1.63,2.42,2.42,0,0,1-.13-.46Zm2.67,7.49a1.25,1.25,0,0,1,.84-1.52l.75-.2a1.23,1.23,0,0,1,1.52.84l1.14,4.16H30.55Zm-1.3,5H52.24l-2.79,23H31.15Z"/></g></g></svg>