<svg xmlns="http://www.w3.org/2000/svg" viewBox="0 0 80.68 80.68"><defs><style>.cls-1{fill:#fcd110;}.cls-2{fill:#4973b9;}</style></defs><g id="Calque_2" data-name="Calque 2"><g id="Calque_1-2" data-name="Calque 1"><circle class="cls-1" cx="40.34" cy="40.34" r="40.34"/><path class="cls-2" d="M54.94,47.58c-1.58-15.36-15.3-20.79-24.11-22.7a8.82,8.82,0,0,0,.53-3,8.92,8.92,0,1,0-3.71,7.22,23.29,23.29,0,0,1,2.79,18.49h-.9a4.12,4.12,0,0,0-4.12,4.11v5.62a4.12,4.12,0,0,0,4.12,4.11H54.93A4.12,4.12,0,0,0,59,57.31V51.69A4.12,4.12,0,0,0,54.94,47.58ZM27.5,26.6l0,0a.47.47,0,0,1-.13.15l-.08.07,0,0a2.09,2.09,0,0,1-.28.24h0l0,0a1.39,1.39,0,0,1-.19.15l-.19.15c-.15.11-.29.21-.45.31l-.46.26a6.69,6.69,0,0,1-1,.42l-.25.08h0l-.06,0-.35.08-.19,0a8.32,8.32,0,0,1-1.3.12,6.92,6.92,0,1,1,6.92-6.92,6.75,6.75,0,0,1-.13,1.36c-.05.22-.1.43-.17.64a1.67,1.67,0,0,0,0,.18s0,0,0,0,0,0,0,.06l-.14.35-.12.27s0,.05,0,.08l0,.06,0,.06h0l0,.06s0,0,0,0-.11.18-.17.28-.13.23-.21.34a1.1,1.1,0,0,1-.09.14l0,0c-.1.15-.21.28-.32.42ZM57.06,57.31a2.14,2.14,0,0,1-2.13,2.14H29.54a2.14,2.14,0,0,1-2.14-2.14V51.69a2.14,2.14,0,0,1,2.14-2.13H55.07l.2,0,.14,0h0l.32.11.26.13.16.11.16.12.14.14.13.15a1.81,1.81,0,0,1,.19.29h0a1.09,1.09,0,0,1,.11.27.36.36,0,0,1,0,.11,2.68,2.68,0,0,1,.07.27h0a2.16,2.16,0,0,1,0,.35Z"/></g></g></svg>