<svg xmlns="http://www.w3.org/2000/svg" viewBox="0 0 80.68 80.68"><defs><style>.cls-1{fill:#fcd110;}.cls-2{fill:#4973b9;}</style></defs><g id="Calque_2" data-name="Calque 2"><g id="Calque_1-2" data-name="Calque 1"><circle class="cls-1" cx="40.34" cy="40.34" r="40.34"/><path class="cls-2" d="M57.66,34.48a17.55,17.55,0,0,0-17.1-17.55h-.45a17.55,17.55,0,0,0-2.06,35v2.29H33.37a2.07,2.07,0,0,0,0,4.13h4.68v4.09a2.06,2.06,0,0,0,4.12,0V58.32h4.68a2.07,2.07,0,0,0,0-4.13H42.17V51.9A17.55,17.55,0,0,0,57.66,34.48ZM40.11,46.59A12.12,12.12,0,1,1,52.23,34.48,12.12,12.12,0,0,1,40.11,46.59Z"/></g></g></svg>