<svg xmlns="http://www.w3.org/2000/svg" viewBox="0 0 80.68 80.68"><defs><style>.cls-1{fill:#fcd110;}.cls-2{fill:#4973b9;}</style></defs><g id="Calque_2" data-name="Calque 2"><g id="Calque_1-2" data-name="Calque 1"><circle class="cls-1" cx="40.34" cy="40.34" r="40.34"/><path class="cls-2" d="M39.11,31.91a4.33,4.33,0,1,0,4.33,4.33A4.33,4.33,0,0,0,39.11,31.91Zm0,6.93a2.6,2.6,0,1,1,2.6-2.6,2.61,2.61,0,0,1-2.6,2.6Z"/><path class="cls-2" d="M63.34,60.47H61.61V44h1.73a.88.88,0,0,0,.87-.87.86.86,0,0,0,0-.27L60.7,32.5a.87.87,0,0,0-.82-.59H45.49l-5.51-8V21.53H46.9a.86.86,0,0,0,.86-.86V16.34a.86.86,0,0,0-.86-.87H39.11a.87.87,0,0,0-.87.87v7.52l-5.51,8.05H18.34a.87.87,0,0,0-.82.59L14.06,42.89A.86.86,0,0,0,14.6,44a.92.92,0,0,0,.28.05h1.73V60.47H14.88a.87.87,0,0,0,0,1.73H63.34a.87.87,0,0,0,0-1.73ZM62.13,42.3H46V33.64H59.25ZM40,17.2H46v2.6H40ZM19,33.64H32.19V42.3H16.09ZM18.34,44H32.19V60.47H18.34ZM36.51,60.47V52.68h5.2v7.79Zm6.93,0V51.82a.87.87,0,0,0-.87-.87H35.65a.87.87,0,0,0-.87.87v8.65h-.86V33.25l5.19-7.59,5.19,7.59V60.47Zm2.59,0V44H59.88V60.47Z"/><path class="cls-2" d="M23.54,44.89H20.07a.87.87,0,0,0-.86.87v3.46a.86.86,0,0,0,.86.86h3.47a.86.86,0,0,0,.86-.86V45.76A.87.87,0,0,0,23.54,44.89Zm-.87,3.46H20.94V46.62h1.73Z"/><path class="cls-2" d="M30.46,44.89H27a.87.87,0,0,0-.87.87v3.46a.86.86,0,0,0,.87.86h3.46a.85.85,0,0,0,.86-.86V45.76A.86.86,0,0,0,30.46,44.89Zm-.87,3.46H27.86V46.62h1.73Z"/><path class="cls-2" d="M23.54,52.68H20.07a.87.87,0,0,0-.86.87V57a.87.87,0,0,0,.86.86h3.47A.87.87,0,0,0,24.4,57V53.55A.87.87,0,0,0,23.54,52.68Zm-.87,3.46H20.94V54.41h1.73Z"/><path class="cls-2" d="M30.46,52.68H27a.87.87,0,0,0-.87.87V57a.87.87,0,0,0,.87.86h3.46a.86.86,0,0,0,.86-.86V53.55A.86.86,0,0,0,30.46,52.68Zm-.87,3.46H27.86V54.41h1.73Z"/><path class="cls-2" d="M51.22,44.89H47.76a.86.86,0,0,0-.86.87v3.46a.85.85,0,0,0,.86.86h3.46a.86.86,0,0,0,.87-.86V45.76A.87.87,0,0,0,51.22,44.89Zm-.86,3.46H48.63V46.62h1.73Z"/><path class="cls-2" d="M58.15,44.89H54.68a.87.87,0,0,0-.86.87v3.46a.86.86,0,0,0,.86.86h3.47a.86.86,0,0,0,.86-.86V45.76A.87.87,0,0,0,58.15,44.89Zm-.87,3.46H55.55V46.62h1.73Z"/><path class="cls-2" d="M51.22,52.68H47.76a.86.86,0,0,0-.86.87V57a.86.86,0,0,0,.86.86h3.46a.87.87,0,0,0,.87-.86V53.55A.87.87,0,0,0,51.22,52.68Zm-.86,3.46H48.63V54.41h1.73Z"/><path class="cls-2" d="M58.15,52.68H54.68a.87.87,0,0,0-.86.87V57a.87.87,0,0,0,.86.86h3.47A.87.87,0,0,0,59,57V53.55A.87.87,0,0,0,58.15,52.68Zm-.87,3.46H55.55V54.41h1.73Z"/><path class="cls-2" d="M39.11,34.51a.87.87,0,0,0-.87.87v.86a.87.87,0,0,0,1.74,0v-.86A.87.87,0,0,0,39.11,34.51Z"/></g></g></svg>