<?xml version="1.0" standalone="no"?>
<!DOCTYPE svg PUBLIC "-//W3C//DTD SVG 20010904//EN"
 "http://www.w3.org/TR/2001/REC-SVG-20010904/DTD/svg10.dtd">
<svg version="1.0" xmlns="http://www.w3.org/2000/svg"
 width="500.000000pt" height="500.000000pt" viewBox="0 0 500.000000 500.000000"
 preserveAspectRatio="xMidYMid meet">
<metadata>
Created by potrace 1.14, written by Peter Selinger 2001-2017
</metadata>
<g transform="translate(0.000000,500.000000) scale(0.100000,-0.100000)"
fill="#000000" stroke="none">
<path d="M2495 4522 c-110 -8 -372 -45 -473 -68 -235 -53 -528 -173 -699 -287
-262 -175 -539 -464 -676 -704 -71 -126 -75 -133 -117 -241 -55 -141 -105
-308 -130 -438 -26 -134 -44 -368 -34 -449 l7 -60 13 90 c56 379 249 798 504
1096 81 94 275 289 287 289 4 0 19 11 33 25 92 88 339 226 539 301 103 39 326
99 410 110 28 3 48 10 45 15 -6 11 -43 9 276 15 275 6 357 1 475 -29 33 -9 80
-18 105 -22 25 -3 55 -13 66 -20 12 -8 62 -25 110 -39 116 -32 213 -73 351
-146 62 -33 115 -60 118 -60 28 0 30 0 18 -8 -8 -5 20 -32 80 -77 208 -158
445 -429 537 -617 13 -27 27 -48 31 -48 3 0 32 -51 63 -113 64 -128 134 -335
176 -517 47 -201 48 -202 49 -45 3 566 -267 1133 -724 1525 -275 235 -594 394
-940 469 -128 28 -420 59 -500 53z"/>
<path d="M2517 3940 c-16 -5 -45 -21 -65 -37 -20 -15 -37 -26 -37 -23 0 6 -42
-29 -74 -62 -61 -61 -82 -223 -38 -298 111 -192 355 -175 425 29 15 41 15 123
2 171 -12 45 -65 126 -119 185 -43 47 -48 49 -94 35z"/>
<path d="M1449 3418 c-27 -28 -49 -57 -49 -65 0 -7 -4 -13 -9 -13 -5 0 -19
-26 -31 -57 -17 -45 -20 -68 -14 -107 9 -66 27 -118 56 -156 26 -35 131 -91
174 -92 45 -1 114 13 114 23 0 5 6 9 14 9 17 0 69 58 92 102 37 72 12 208 -50
276 -25 28 -106 86 -106 76 0 -3 -6 -2 -12 4 -11 8 -116 52 -126 52 -2 0 -25
-23 -53 -52z"/>
<path d="M2174 3428 c6 -23 -13 -139 -24 -148 -7 -6 -9 -29 -11 -110 -1 -35
-4 -48 -9 -35 -4 11 -7 -22 -7 -73 1 -51 4 -86 9 -80 6 10 8 9 8 -3 0 -8 -5
-20 -11 -26 -9 -9 -7 -32 6 -92 10 -44 21 -78 25 -76 3 2 7 -14 7 -36 2 -49
57 -169 78 -169 9 0 12 -6 9 -15 -5 -13 12 -40 71 -107 8 -10 15 -22 15 -28 0
-5 4 -10 9 -10 5 0 27 -18 49 -40 22 -22 44 -40 50 -40 5 0 12 -6 15 -14 5
-13 141 -96 158 -96 4 0 23 -8 41 -18 46 -25 175 -72 199 -72 17 0 10 12 -36
63 -75 82 -148 231 -175 354 -47 219 -7 483 113 746 20 42 41 77 48 77 8 0 9
3 0 13 -6 8 -7 17 -3 22 4 4 -23 -12 -59 -36 -36 -24 -65 -46 -63 -48 5 -5
-117 -64 -146 -70 -14 -3 -57 -5 -95 -5 -59 -1 -78 4 -117 27 -51 30 -116 99
-124 134 -3 12 -13 24 -21 27 -12 5 -14 1 -9 -16z m261 -328 l16 -49 57 -3 57
-3 -47 -34 -46 -33 15 -45 c8 -24 13 -46 11 -48 -3 -3 -22 8 -44 24 l-39 29
-39 -29 c-22 -16 -42 -27 -44 -24 -2 2 3 24 11 49 l16 46 -46 32 -46 33 59 5
58 5 15 48 c8 26 16 47 17 47 1 0 10 -22 19 -50z"/>
<path d="M1912 3025 c-6 -22 -14 -56 -17 -75 -9 -42 -41 -90 -61 -90 -8 0 -14
-3 -14 -8 0 -4 -17 -16 -37 -27 -88 -48 -320 -3 -455 87 -27 19 -48 23 -48 11
1 -5 23 -24 50 -43 27 -19 48 -37 47 -40 -1 -3 18 -32 43 -65 58 -76 102 -144
115 -175 4 -8 18 -38 31 -66 14 -28 32 -91 40 -140 9 -49 18 -96 21 -104 11
-28 -3 -259 -18 -309 -6 -20 -14 -48 -19 -63 -5 -16 -6 -28 -3 -28 12 0 162
134 221 197 76 81 182 228 182 253 0 10 6 23 14 29 24 20 72 269 60 306 -2 6
-8 37 -13 70 -12 78 -14 87 -45 170 -15 38 -35 79 -45 90 -10 11 -23 29 -29
40 -9 17 -11 15 -20 -20z"/>
<path d="M425 1927 c-55 -31 -57 -53 -6 -61 46 -7 85 -48 101 -104 29 -110 21
-318 -21 -527 -19 -94 -19 -100 -3 -112 10 -7 29 -13 42 -13 32 0 90 28 102
50 5 9 34 114 64 232 85 328 140 468 185 468 73 0 74 -182 4 -520 -47 -229
-47 -224 -1 -228 21 -2 53 4 72 13 38 18 57 55 76 150 34 162 155 454 205 493
80 63 88 -49 30 -406 -53 -326 -45 -439 29 -458 71 -17 149 47 218 180 37 72
47 85 52 69 4 -12 19 -26 35 -33 37 -15 91 7 144 58 l38 37 -7 -57 c-18 -151
53 -215 145 -132 43 38 123 188 162 305 l23 66 60 10 c34 6 62 9 64 8 1 -1 -8
-42 -20 -91 -28 -116 -32 -294 -6 -320 21 -21 71 -21 104 1 14 9 43 44 65 77
l39 61 1 -104 c0 -118 12 -163 51 -192 34 -25 67 -17 112 28 30 29 81 123 111
200 6 17 9 13 17 -19 12 -53 34 -76 74 -76 47 0 94 50 132 141 18 42 32 64 32
52 0 -44 111 -72 130 -33 5 8 20 58 35 110 33 119 70 203 87 198 15 -5 16
-121 3 -328 -9 -151 0 -199 40 -226 66 -43 148 40 209 210 6 17 8 17 24 4 46
-41 114 -23 162 44 l28 38 4 -75 c4 -88 27 -128 75 -133 75 -8 140 101 199
331 13 54 22 102 19 107 -13 21 -45 10 -51 -17 -17 -79 -58 -213 -77 -253
l-21 -45 -4 45 c-1 25 8 103 21 173 l24 129 -24 11 c-16 7 -34 7 -64 -2 -35
-11 -44 -19 -61 -59 -54 -126 -82 -183 -98 -197 -31 -28 -33 11 -5 122 30 119
26 133 -35 133 -61 0 -85 -27 -105 -117 -22 -102 -81 -283 -99 -308 -14 -19
-15 -19 -22 -1 -4 10 -2 73 5 140 21 224 12 290 -48 320 -69 36 -141 7 -183
-74 l-28 -52 0 41 c0 48 -24 66 -75 57 -44 -9 -63 -33 -75 -97 -11 -58 -64
-224 -80 -249 -27 -43 -18 102 15 245 17 73 8 88 -54 87 -64 -1 -75 -12 -95
-99 -38 -160 -132 -403 -156 -403 -30 0 11 447 65 710 6 25 6 25 128 26 197 1
304 41 354 129 29 51 29 81 2 88 -15 4 -22 -1 -29 -18 -29 -76 -188 -135 -365
-135 l-75 0 0 30 c0 42 -35 58 -90 41 -32 -10 -42 -18 -46 -40 -6 -27 -9 -29
-76 -34 -75 -6 -108 -22 -134 -63 -16 -24 -16 -26 0 -42 16 -16 19 -15 40 11
17 21 36 30 84 39 34 6 64 9 67 7 2 -3 -9 -81 -24 -174 -29 -169 -78 -335
-118 -393 l-18 -27 -3 30 c-2 17 9 84 23 150 41 188 41 186 20 201 -27 20 -79
17 -122 -6 -21 -11 -53 -20 -72 -20 -30 0 -33 2 -27 23 4 12 9 45 13 73 10 88
-40 144 -103 115 -58 -26 -74 -159 -28 -227 l27 -39 -23 -65 c-50 -139 -100
-234 -116 -218 -7 7 22 162 51 272 14 55 24 105 21 112 -8 20 -70 36 -98 25
-24 -9 -35 -29 -65 -121 -3 -10 -12 0 -23 26 -35 81 -102 106 -159 59 -45 -39
-67 -80 -95 -189 -28 -105 -92 -252 -119 -275 -14 -11 -18 -11 -23 4 -10 26 3
163 31 325 46 265 44 355 -11 428 -48 62 -114 78 -183 43 -47 -24 -82 -70
-128 -166 -19 -41 -36 -75 -37 -75 0 0 0 53 2 118 3 109 1 120 -20 152 -28 42
-80 70 -131 70 -94 0 -146 -63 -213 -260 l-33 -95 -1 55 c-1 79 -26 186 -55
235 -27 47 -90 85 -141 85 -16 0 -47 -11 -69 -23z m1695 -349 c0 -13 -5 -30
-10 -38 -7 -11 -10 -5 -10 23 0 20 5 37 10 37 6 0 10 -10 10 -22z m-347 -193
c9 -19 21 -35 27 -35 13 0 -12 -49 -53 -107 -34 -49 -44 -53 -49 -20 -8 56 27
197 50 197 4 0 16 -16 25 -35z"/>
<path d="M4258 1774 c-16 -8 -40 -38 -55 -67 -24 -45 -27 -64 -28 -142 0 -82
3 -96 32 -155 18 -36 58 -96 89 -135 84 -105 83 -98 26 -159 -62 -66 -82 -104
-89 -172 -7 -65 11 -98 64 -121 80 -33 194 24 246 122 29 57 29 164 -1 222
l-22 42 56 53 c62 59 109 130 100 153 -9 25 -45 18 -56 -10 -11 -28 -94 -121
-121 -136 -14 -7 -28 2 -68 44 -27 28 -59 65 -71 80 l-22 28 22 52 c68 157 65
263 -10 302 -36 19 -57 18 -92 -1z m96 -130 c0 -47 -7 -83 -21 -114 l-20 -45
-13 30 c-16 39 -7 147 14 181 28 42 41 25 40 -52z m57 -551 c28 -75 -5 -163
-74 -196 -53 -26 -72 13 -44 91 11 29 91 132 103 132 2 0 9 -12 15 -27z"/>
<path d="M4011 1665 c-16 -14 -35 -42 -42 -62 -11 -34 -10 -37 15 -55 30 -23
34 -57 11 -111 -49 -117 48 -68 109 54 38 77 33 151 -13 186 -24 19 -47 15
-80 -12z"/>
<path d="M2786 1597 c-25 -19 -17 -58 17 -77 24 -13 30 -13 55 0 32 18 40 51
17 74 -20 19 -64 21 -89 3z"/>
<path d="M544 785 c-9 -14 -13 -29 -9 -33 7 -7 45 34 45 49 0 18 -20 9 -36
-16z"/>
<path d="M1395 720 c-3 -6 1 -13 10 -16 19 -8 30 0 20 15 -8 14 -22 14 -30 1z"/>
<path d="M3150 715 c0 -8 7 -15 15 -15 8 0 15 7 15 15 0 8 -7 15 -15 15 -8 0
-15 -7 -15 -15z"/>
<path d="M4330 715 c0 -8 7 -15 15 -15 8 0 15 7 15 15 0 8 -7 15 -15 15 -8 0
-15 -7 -15 -15z"/>
<path d="M480 615 l0 -105 75 0 c60 0 75 3 75 15 0 12 -13 15 -60 15 l-60 0 0
30 c0 29 1 30 50 30 38 0 50 4 50 15 0 11 -12 15 -50 15 -49 0 -50 1 -50 30
l0 30 60 0 c47 0 60 3 60 15 0 12 -15 15 -75 15 l-75 0 0 -105z"/>
<path d="M750 686 c0 -33 -2 -36 -30 -36 -38 0 -70 -32 -70 -70 0 -45 31 -70
85 -70 l46 0 -3 102 c-2 70 -7 103 -15 106 -9 2 -13 -8 -13 -32z m-16 -62 c21
-8 22 -82 2 -90 -43 -16 -74 46 -40 80 18 18 17 18 38 10z"/>
<path d="M2560 614 c0 -80 3 -105 13 -102 6 3 14 26 17 53 9 91 70 86 70 -6 0
-37 4 -49 15 -49 11 0 15 13 15 54 0 67 -18 90 -67 84 -32 -4 -33 -3 -33 34 0
27 -4 38 -15 38 -12 0 -15 -18 -15 -106z"/>
<path d="M3570 685 c0 -32 -2 -35 -30 -35 -63 0 -94 -77 -48 -120 15 -14 35
-20 65 -20 l43 0 0 105 c0 87 -3 105 -15 105 -10 0 -15 -11 -15 -35z m-2 -108
c3 -41 1 -47 -17 -47 -44 0 -66 54 -35 85 29 29 49 15 52 -38z"/>
<path d="M3880 615 c0 -87 3 -105 15 -105 12 0 15 18 15 105 0 87 -3 105 -15
105 -12 0 -15 -18 -15 -105z"/>
<path d="M1290 666 c0 -8 -6 -17 -12 -20 -10 -5 -10 -7 0 -12 7 -3 12 -25 12
-54 0 -53 16 -73 51 -68 31 4 38 29 7 26 -21 -3 -23 1 -26 45 -3 45 -2 47 22
47 15 0 26 5 26 10 0 6 -11 10 -25 10 -16 0 -25 6 -25 15 0 8 -7 15 -15 15 -8
0 -15 -6 -15 -14z"/>
<path d="M820 596 c0 -64 16 -86 65 -86 49 0 65 22 65 86 0 41 -4 54 -15 54
-11 0 -15 -12 -15 -49 0 -95 -62 -97 -68 -2 -2 36 -7 51 -18 51 -10 0 -14 -14
-14 -54z"/>
<path d="M1020 637 c-34 -17 -41 -84 -11 -111 20 -19 94 -20 89 -1 -2 6 -15 9
-30 7 -20 -2 -31 4 -43 22 -24 36 -6 66 40 66 37 0 54 14 29 24 -24 9 -46 7
-74 -7z"/>
<path d="M1140 640 c-16 -10 -12 -12 35 -14 38 -1 50 -36 13 -36 -36 0 -60
-22 -56 -51 3 -21 8 -24 56 -27 l52 -3 0 58 c0 33 -5 64 -12 71 -14 14 -67 16
-88 2z m70 -90 c0 -15 -7 -20 -25 -20 -24 0 -34 18 -18 33 15 15 43 7 43 -13z"/>
<path d="M1400 580 c0 -56 3 -70 15 -70 12 0 15 14 15 70 0 56 -3 70 -15 70
-12 0 -15 -14 -15 -70z"/>
<path d="M1485 625 c-30 -30 -31 -54 -4 -89 41 -52 129 -23 129 44 0 65 -78
93 -125 45z m77 -12 c22 -20 23 -41 1 -65 -20 -22 -31 -23 -55 -1 -22 20 -23
41 -1 65 20 22 31 23 55 1z"/>
<path d="M1650 580 c0 -54 3 -70 14 -70 11 0 16 15 18 51 6 95 68 93 68 -2 0
-37 4 -49 15 -49 22 0 21 103 -1 124 -18 19 -65 21 -82 4 -9 -9 -12 -9 -12 0
0 7 -4 12 -10 12 -6 0 -10 -30 -10 -70z"/>
<path d="M1977 643 c-4 -3 -7 -51 -7 -105 0 -80 3 -98 15 -98 10 0 15 11 15
35 0 33 2 35 33 35 43 0 67 26 67 73 0 26 -6 40 -22 51 -22 16 -89 22 -101 9z
m77 -26 c22 -16 18 -65 -5 -80 -29 -18 -49 -1 -49 41 0 54 17 66 54 39z"/>
<path d="M2147 643 c-15 -14 -6 -21 25 -19 23 1 33 -4 36 -16 2 -13 -3 -18
-20 -18 -36 0 -60 -22 -56 -51 3 -21 8 -24 56 -27 l52 -3 0 58 c0 33 -5 64
-12 71 -13 13 -70 17 -81 5z m71 -90 c-4 -20 -35 -30 -50 -15 -15 15 0 32 28
32 19 0 25 -5 22 -17z"/>
<path d="M2290 579 c0 -55 3 -69 15 -69 11 0 15 12 15 49 0 54 14 73 49 64 18
-4 22 -2 19 8 -3 9 -21 15 -51 16 l-47 2 0 -70z"/>
<path d="M2423 624 c-20 -20 -24 -31 -19 -57 8 -41 30 -57 78 -57 27 0 38 4
38 15 0 11 -7 13 -28 9 -47 -9 -82 42 -50 74 7 7 27 12 45 12 35 0 44 14 17
24 -31 12 -55 6 -81 -20z"/>
<path d="M2746 634 c-58 -57 -2 -140 80 -120 38 10 29 28 -9 21 -26 -5 -39 -2
-52 12 -18 17 -17 18 36 23 51 5 54 7 51 30 -1 14 -10 31 -19 38 -23 17 -68
15 -87 -4z m72 -16 c21 -21 13 -28 -28 -28 -38 0 -40 2 -30 20 12 22 40 26 58
8z"/>
<path d="M2890 578 c0 -54 3 -68 15 -68 11 0 15 12 15 49 0 52 16 76 44 65 12
-5 16 -19 16 -60 0 -41 4 -54 15 -54 11 0 15 11 15 41 0 46 14 79 35 79 21 0
35 -33 35 -79 0 -30 4 -41 15 -41 16 0 21 62 9 108 -8 27 -46 39 -79 24 -14
-7 -27 -7 -30 -2 -3 5 -28 8 -55 8 l-50 -1 0 -69z"/>
<path d="M3150 580 c0 -56 3 -70 15 -70 12 0 15 14 15 70 0 56 -3 70 -15 70
-12 0 -15 -14 -15 -70z"/>
<path d="M3220 580 c0 -56 3 -70 15 -70 11 0 15 11 15 43 0 43 21 77 48 77 18
0 32 -35 32 -79 0 -30 4 -41 15 -41 19 0 20 74 2 110 -14 28 -59 39 -83 19
-10 -8 -14 -8 -14 0 0 6 -7 11 -15 11 -12 0 -15 -14 -15 -70z"/>
<path d="M3656 634 c-58 -57 -2 -140 80 -120 36 10 29 25 -9 19 -24 -4 -39 0
-52 13 -18 19 -17 19 36 24 51 5 54 7 51 30 -1 14 -10 31 -19 38 -23 17 -68
15 -87 -4z m72 -16 c21 -21 13 -28 -28 -28 -38 0 -40 2 -30 20 12 22 40 26 58
8z"/>
<path d="M3960 640 c-16 -10 -12 -12 35 -14 38 -1 50 -36 13 -36 -36 0 -60
-22 -56 -51 3 -21 8 -24 56 -27 l52 -3 0 58 c0 33 -5 64 -12 71 -14 14 -67 16
-88 2z m70 -90 c0 -15 -7 -20 -25 -20 -24 0 -34 18 -18 33 15 15 43 7 43 -13z"/>
<path d="M4189 583 c35 -85 54 -92 81 -28 31 72 35 95 17 95 -10 0 -22 -20
-33 -52 l-17 -53 -18 40 c-10 22 -19 46 -19 53 0 6 -9 12 -19 12 -19 0 -18 -4
8 -67z"/>
<path d="M4330 580 c0 -56 3 -70 15 -70 12 0 15 14 15 70 0 56 -3 70 -15 70
-12 0 -15 -14 -15 -70z"/>
<path d="M4417 632 c-23 -25 -21 -78 3 -102 20 -20 63 -26 94 -14 26 10 7 24
-24 17 -29 -5 -60 9 -60 28 0 5 23 9 50 9 46 0 50 2 50 23 0 51 -78 77 -113
39z m67 -8 c30 -12 18 -34 -19 -34 -37 0 -43 8 -23 28 14 14 20 14 42 6z"/>
<path d="M1823 505 c1 -35 1 -35 20 -16 21 21 17 51 -7 51 -10 0 -14 -11 -13
-35z"/>
</g>
</svg>
